# xmcd
#
# Track frame offsets:
#	150
#	15332
#	28502
#	41723
#	55753
#	68796
#	86698
#	100632
#	112797
#	122521
#
# Disc length: 1776 seconds
#
# Revision: 1
# Processed by: cddbd v1.5.2PL0 Copyright (c) Steve Scherf et al.
# Submitted via: audiograbber 1.83.01
#
DISCID=6d06ee0a
DTITLE=Gene Watson - The Best Of
DYEAR=1978
DGENRE=Country
TTITLE0=Love In The Hot Afternoon
TTITLE1=You Could Know As Much About A Stranger
TTITLE2=Because You Believed In Me
TTITLE3=Bad Water
TTITLE4=Shadows On The Wall
TTITLE5=Paper Rosie
TTITLE6=Where Love Begins
TTITLE7=If I'm A Fool For Leaving
TTITLE8=John's Back In Town
TTITLE9=Her Body Couldn't Keep You (Off My Mind)
EXTD=
EXTT0=
EXTT1=
EXTT2=
EXTT3=
EXTT4=
EXTT5=
EXTT6=
EXTT7=
EXTT8=
EXTT9=
PLAYORDER=
